# xmcd
#
# Track frame offsets:
#	150
#	14259
#	29510
#	42100
#	57399
#	72837
#	87182
#	102379
#	123586
#	141065
#	155766
#	173162
#
# Disc length: 2516 seconds
#
# Revision: 3
# Processed by: cddbd v1.5.1PL0 Copyright (c) Steve Scherf et al.
# Submitted via: EasyCDDAExtractor 7.1.3.1
#
DISCID=a209d20c
DTITLE=Sertab Erener - No Boundaries
DYEAR=2004
DGENRE=Classic Rock
TTITLE0=Here I Am
TTITLE1=Breathe In Deeper
TTITLE2=Every Way That I Can
TTITLE3=Got Me Like Oh
TTITLE4=I Believe (That I See Love In You)
TTITLE5=Leave
TTITLE6=It Takes More
TTITLE7=Back To The Beach
TTITLE8=Storms
TTITLE9=Love Bites
TTITLE10=The One
TTITLE11=Here I Am (Jason Nevins Radio Remix)
EXTD=
EXTT0=
EXTT1=
EXTT2=
EXTT3=
EXTT4=
EXTT5=
EXTT6=
EXTT7=
EXTT8=
EXTT9=
EXTT10=
EXTT11=
PLAYORDER=
